<svg width="142" height="175" viewBox="0 0 142 175" fill="none" xmlns="http://www.w3.org/2000/svg">
<path d="M92.1854 1.88733L92.1758 2.88924L92.1854 1.88733ZM112.031 22.118L111.029 22.1083L111.029 22.1083L112.031 22.118ZM110.828 147.356L111.83 147.366V147.366L110.828 147.356ZM130.674 167.587L130.683 166.585V166.585L130.674 167.587ZM141.394 168.398C141.789 168.011 141.795 167.377 141.408 166.982L135.093 160.544C134.705 160.149 134.071 160.143 133.676 160.531C133.281 160.918 133.275 161.552 133.662 161.948L139.276 167.67L133.554 173.283C133.159 173.67 133.152 174.305 133.54 174.7C133.927 175.095 134.562 175.101 134.957 174.713L141.394 168.398ZM0.00970983 1.00189L8.38704e-05 2.0038L92.1758 2.88924L92.1854 1.88733L92.1951 0.885421L0.0193358 -1.57111e-05L0.00970983 1.00189ZM112.031 22.118L111.029 22.1083L109.826 147.347L110.828 147.356L111.83 147.366L113.033 22.1276L112.031 22.118ZM130.674 167.587L130.664 168.589L140.683 168.685L140.693 167.683L140.702 166.681L130.683 166.585L130.674 167.587ZM110.828 147.356L109.826 147.347C109.715 158.967 119.044 168.477 130.664 168.589L130.674 167.587L130.683 166.585C120.17 166.484 111.729 157.879 111.83 147.366L110.828 147.356ZM92.1854 1.88733L92.1758 2.88924C102.689 2.99022 111.13 11.5949 111.029 22.1083L112.031 22.118L113.033 22.1276C113.145 10.5075 103.815 0.997046 92.1951 0.885421L92.1854 1.88733Z" fill="white"/>
</svg>
