<svg width="142" height="175" viewBox="0 0 142 175" fill="none" xmlns="http://www.w3.org/2000/svg">
<path d="M92.1854 173.113L92.1758 172.111L92.1854 173.113ZM112.031 152.882L111.029 152.892L111.029 152.892L112.031 152.882ZM110.828 27.6437L111.83 27.634V27.634L110.828 27.6437ZM130.674 7.41303L130.683 8.41494V8.41494L130.674 7.41303ZM141.394 6.60153C141.789 6.98904 141.795 7.62342 141.408 8.01844L135.093 14.4558C134.705 14.8508 134.071 14.8569 133.676 14.4694C133.281 14.0819 133.275 13.4475 133.662 13.0525L139.276 7.3304L133.553 1.7172C133.158 1.3297 133.152 0.69532 133.54 0.300297C133.927 -0.0947386 134.562 -0.100828 134.957 0.286683L141.394 6.60153ZM0.00970983 173.998L8.38704e-05 172.996L92.1758 172.111L92.1854 173.113L92.195 174.115L0.0193358 175L0.00970983 173.998ZM112.031 152.882L111.029 152.892L109.826 27.6533L110.828 27.6437L111.83 27.634L113.033 152.872L112.031 152.882ZM130.674 7.41303L130.664 6.41112L140.683 6.31488L140.692 7.31679L140.702 8.3187L130.683 8.41494L130.674 7.41303ZM110.828 27.6437L109.826 27.6533C109.715 16.0332 119.044 6.52274 130.664 6.41112L130.674 7.41303L130.683 8.41494C120.17 8.51593 111.729 17.1206 111.83 27.634L110.828 27.6437ZM92.1854 173.113L92.1758 172.111C102.689 172.01 111.13 163.405 111.029 152.892L112.031 152.882L113.033 152.872C113.145 164.492 103.815 174.003 92.195 174.115L92.1854 173.113Z" fill="white"/>
</svg>
