<svg width="149" height="174" viewBox="0 0 149 174" fill="none" xmlns="http://www.w3.org/2000/svg">
<path d="M97.9094 1.00178L97.9094 2.00357L97.9094 1.00178ZM117.945 21.0375L118.947 21.0375V21.0375L117.945 21.0375ZM117.945 146.261L116.943 146.261V146.261L117.945 146.261ZM137.981 166.296L137.981 165.295V165.295L137.981 166.296ZM148.707 167.005C149.098 166.614 149.098 165.979 148.707 165.588L142.331 159.213C141.94 158.822 141.306 158.822 140.915 159.213C140.524 159.604 140.524 160.238 140.915 160.629L146.582 166.296L140.915 171.963C140.524 172.355 140.524 172.989 140.915 173.38C141.306 173.771 141.94 173.771 142.331 173.38L148.707 167.005ZM-0.000242436 1.0018L-0.000244123 2.00359L97.9094 2.00357L97.9094 1.00178L97.9094 -7.61357e-07L-0.000240748 1.07808e-05L-0.000242436 1.0018ZM117.945 21.0375L116.943 21.0375L116.943 146.261L117.945 146.261L118.947 146.261L118.947 21.0375L117.945 21.0375ZM137.981 166.296L137.981 167.298L147.998 167.298L147.998 166.296L147.998 165.295L137.981 165.295L137.981 166.296ZM117.945 146.261L116.943 146.261C116.943 157.879 126.362 167.298 137.981 167.298L137.981 166.296L137.981 165.295C127.469 165.295 118.947 156.773 118.947 146.261L117.945 146.261ZM97.9094 1.00178L97.9094 2.00357C108.422 2.00357 116.943 10.5253 116.943 21.0375L117.945 21.0375L118.947 21.0375C118.947 9.41881 109.528 -6.50587e-06 97.9094 -7.61357e-07L97.9094 1.00178Z" fill="white"/>
</svg>
