<svg width="119" height="153" viewBox="0 0 119 153" fill="none" xmlns="http://www.w3.org/2000/svg">
<path d="M1.00091 27.3891L-1.19103e-05 27.3891L1.00091 27.3891ZM21.0193 7.3707L21.0193 6.36978L21.0193 6.36977L21.0193 7.3707ZM117.997 6.66294C118.388 7.05383 118.388 7.68757 117.997 8.07846L111.627 14.4483C111.236 14.8391 110.602 14.8391 110.212 14.4483C109.821 14.0574 109.821 13.4236 110.212 13.0327L115.874 7.37069L110.212 1.70864C109.821 1.31776 109.821 0.684014 110.212 0.293134C110.602 -0.0977444 111.236 -0.0977545 111.627 0.293136L117.997 6.66294ZM1.00092 153L-2.34393e-08 153L-1.19103e-05 27.3891L1.00091 27.3891L2.00183 27.3891L2.00184 153L1.00092 153ZM21.0193 7.3707L21.0193 6.36977L117.289 6.36978L117.289 7.3707L117.289 8.37162L21.0193 8.37162L21.0193 7.3707ZM1.00091 27.3891L-1.19103e-05 27.3891C-8.18826e-06 15.7804 9.41065 6.36979 21.0193 6.36978L21.0193 7.3707L21.0193 8.37161C10.5162 8.37162 2.00183 16.886 2.00183 27.3891L1.00091 27.3891Z" fill="white"/>
</svg>
