<svg width="114" height="146" viewBox="0 0 114 146" fill="none" xmlns="http://www.w3.org/2000/svg">
<path d="M1.00012 27.364L2.00012 27.364V27.364L1.00012 27.364ZM21.0001 7.36402L21.0001 8.36402L21.0001 7.36402ZM113.707 6.65685C114.098 7.04738 114.098 7.68054 113.707 8.07107L107.343 14.435C106.953 14.8256 106.32 14.8256 105.929 14.435C105.539 14.0445 105.539 13.4113 105.929 13.0208L111.586 7.36396L105.929 1.70711C105.539 1.31658 105.539 0.683427 105.929 0.292894C106.32 -0.0976247 106.953 -0.0976247 107.343 0.292897L113.707 6.65685ZM1.00005 145.864L4.75419e-05 145.864L0.000112904 27.364L1.00012 27.364L2.00012 27.364L2.00005 145.864L1.00005 145.864ZM21.0001 7.36402L21.0001 6.36402L113 6.36396L113 7.36396L113 8.36396L21.0001 8.36402L21.0001 7.36402ZM1.00012 27.364L0.000112904 27.364C0.000120929 15.766 9.40213 6.36403 21.0001 6.36402L21.0001 7.36402L21.0001 8.36402C10.5067 8.36403 2.00012 16.8706 2.00012 27.364L1.00012 27.364Z" fill="white"/>
</svg>
