<svg width="136" height="174" viewBox="0 0 136 174" fill="none" xmlns="http://www.w3.org/2000/svg">
<path d="M86.3151 172.856L86.3151 171.855V171.855L86.3151 172.856ZM106.346 152.632L105.344 152.642V152.642L106.346 152.632ZM105.145 27.6335L104.144 27.6431V27.6431L105.145 27.6335ZM124.983 7.41031L124.993 8.41186V8.41186L124.983 7.41031ZM135.7 6.59911C136.095 6.98648 136.101 7.62062 135.714 8.0155L129.401 14.4505C129.014 14.8453 128.38 14.8514 127.985 14.4641C127.59 14.0767 127.584 13.4426 127.971 13.0477L133.582 7.32772L127.862 1.7166C127.467 1.32923 127.461 0.69509 127.849 0.300213C128.236 -0.0946763 128.87 -0.100764 129.265 0.286604L135.7 6.59911ZM0.000242341 172.856L0.000245156 171.855L86.3151 171.855L86.3151 172.856L86.3151 173.858L0.000239538 173.858L0.000242341 172.856ZM106.346 152.632L105.344 152.642L104.144 27.6431L105.145 27.6335L106.147 27.6238L107.347 152.622L106.346 152.632ZM124.983 7.41031L124.974 6.40877L134.989 6.31257L134.999 7.31411L135.008 8.31565L124.993 8.41186L124.983 7.41031ZM105.145 27.6335L104.144 27.6431C104.032 16.0273 113.358 6.52035 124.974 6.40877L124.983 7.41031L124.993 8.41186C114.484 8.5128 106.046 17.1143 106.147 27.6238L105.145 27.6335ZM86.3151 172.856L86.3151 171.855C96.8966 171.855 105.446 163.223 105.344 152.642L106.346 152.632L107.347 152.622C107.46 164.317 98.0104 173.858 86.3151 173.858L86.3151 172.856Z" fill="white"/>
</svg>
