<svg width="116" height="141" viewBox="0 0 116 141" fill="none" xmlns="http://www.w3.org/2000/svg">
<path d="M1.00433 113.489L2.00866 113.489V113.489L1.00433 113.489ZM21.0909 133.576L21.0909 134.58V134.58L21.0909 133.576ZM115.706 134.286C116.098 133.894 116.098 133.258 115.706 132.866L109.314 126.474C108.922 126.082 108.286 126.082 107.894 126.474C107.502 126.866 107.502 127.502 107.894 127.894L113.575 133.576L107.894 139.257C107.502 139.649 107.502 140.285 107.894 140.677C108.286 141.07 108.922 141.07 109.314 140.677L115.706 134.286ZM1.00433 0H-1.78877e-08L-5.60424e-06 113.489L1.00433 113.489L2.00866 113.489L2.00866 0H1.00433ZM21.0909 133.576L21.0909 134.58L114.996 134.58L114.996 133.576L114.996 132.571L21.0909 132.571L21.0909 133.576ZM1.00433 113.489L-5.60424e-06 113.489C-1.86952e-06 125.137 9.44272 134.58 21.0909 134.58L21.0909 133.576L21.0909 132.571C10.5521 132.571 2.00866 124.028 2.00866 113.489L1.00433 113.489Z" fill="white"/>
</svg>
