<svg width="114" height="146" viewBox="0 0 114 146" fill="none" xmlns="http://www.w3.org/2000/svg">
<path d="M1.00012 118.5L2.00012 118.5V118.5L1.00012 118.5ZM21.0001 138.5L21.0001 137.5L21.0001 138.5ZM113.707 139.207C114.098 138.817 114.098 138.184 113.707 137.793L107.343 131.429C106.953 131.039 106.32 131.039 105.929 131.429C105.539 131.82 105.539 132.453 105.929 132.843L111.586 138.5L105.929 144.157C105.539 144.547 105.539 145.181 105.929 145.571C106.32 145.962 106.953 145.962 107.343 145.571L113.707 139.207ZM1.00005 0L4.75419e-05 5.88748e-07L0.000112904 118.5L1.00012 118.5L2.00012 118.5L2.00005 -5.94357e-07L1.00005 0ZM21.0001 138.5L21.0001 139.5L113 139.5L113 138.5L113 137.5L21.0001 137.5L21.0001 138.5ZM1.00012 118.5L0.000112904 118.5C0.000120929 130.098 9.40213 139.5 21.0001 139.5L21.0001 138.5L21.0001 137.5C10.5067 137.5 2.00012 128.993 2.00012 118.5L1.00012 118.5Z" fill="white"/>
</svg>
